<svg xmlns="http://www.w3.org/2000/svg" viewBox="0 0 24 24">
  <path fill="none" stroke="currentColor" stroke-linecap="round" stroke-linejoin="round" stroke-width="1.7" d="M12 2.8a3.4 3.4 0 0 0-3.4 3.4v5.2a3.4 3.4 0 0 0 6.8 0V6.2A3.4 3.4 0 0 0 12 2.8Z"/>
  <path fill="none" stroke="currentColor" stroke-linecap="round" stroke-width="1.7" d="M5.8 10.7v.8a6.2 6.2 0 0 0 12.4 0v-.8M12 17.7v3.5M8.8 21.2h6.4"/>
  <path fill="currentColor" d="m18.8 3.1.65 1.45 1.45.65-1.45.65-.65 1.45-.65-1.45-1.45-.65 1.45-.65.65-1.45Z"/>
</svg>
